<?xml version="1.0" encoding="UTF-8" standalone="no"?>
<!DOCTYPE svg PUBLIC "-//W3C//DTD SVG 1.1//EN"
 "http://www.w3.org/Graphics/SVG/1.1/DTD/svg11.dtd">
<!-- Generated by graphviz version 8.0.4 (20230421.1958)
 -->
<!-- Pages: 1 -->
<svg width="196pt" height="188pt"
 viewBox="0.00 0.00 195.81 188.00" xmlns="http://www.w3.org/2000/svg" xmlns:xlink="http://www.w3.org/1999/xlink">
<g id="graph0" class="graph" transform="scale(1 1) rotate(0) translate(4 184)">
<polygon fill="white" stroke="none" points="-4,4 -4,-184 191.81,-184 191.81,4 -4,4"/>
<!-- sigma -->
<g id="node1" class="node">
<title>sigma</title>
<ellipse fill="white" stroke="black" cx="33.44" cy="-90" rx="33.44" ry="18"/>
<text text-anchor="middle" x="33.44" y="-84.95" font-family="Times,serif" font-size="14.00">sigma</text>
</g>
<!-- y -->
<g id="node5" class="node">
<title>y</title>
<ellipse fill="grey" stroke="black" cx="72.44" cy="-18" rx="27" ry="18"/>
<text text-anchor="middle" x="72.44" y="-12.95" font-family="Times,serif" font-size="14.00">y</text>
</g>
<!-- sigma&#45;&gt;y -->
<g id="edge3" class="edge">
<title>sigma&#45;&gt;y</title>
<path fill="none" stroke="black" d="M42.68,-72.41C47.31,-64.1 53.02,-53.85 58.2,-44.56"/>
<polygon fill="black" stroke="black" points="61.72,-46.43 63.53,-35.99 55.61,-43.02 61.72,-46.43"/>
</g>
<!-- intercept -->
<g id="node2" class="node">
<title>intercept</title>
<ellipse fill="white" stroke="black" cx="65.44" cy="-162" rx="43.16" ry="18"/>
<text text-anchor="middle" x="65.44" y="-156.95" font-family="Times,serif" font-size="14.00">intercept</text>
</g>
<!-- mu -->
<g id="node4" class="node">
<title>mu</title>
<ellipse fill="white" stroke="black" stroke-dasharray="5,2" cx="111.44" cy="-90" rx="27" ry="18"/>
<text text-anchor="middle" x="111.44" y="-84.95" font-family="Times,serif" font-size="14.00">mu</text>
</g>
<!-- intercept&#45;&gt;mu -->
<g id="edge1" class="edge">
<title>intercept&#45;&gt;mu</title>
<path fill="none" stroke="black" d="M76.34,-144.41C81.92,-135.92 88.83,-125.41 95.03,-115.96"/>
<polygon fill="black" stroke="black" points="98.36,-118.27 100.93,-107.99 92.51,-114.42 98.36,-118.27"/>
</g>
<!-- slope -->
<g id="node3" class="node">
<title>slope</title>
<ellipse fill="white" stroke="black" cx="157.44" cy="-162" rx="30.37" ry="18"/>
<text text-anchor="middle" x="157.44" y="-156.95" font-family="Times,serif" font-size="14.00">slope</text>
</g>
<!-- slope&#45;&gt;mu -->
<g id="edge2" class="edge">
<title>slope&#45;&gt;mu</title>
<path fill="none" stroke="black" d="M146.77,-144.76C141.12,-136.16 134.05,-125.41 127.73,-115.79"/>
<polygon fill="black" stroke="black" points="130.15,-114.1 121.73,-107.67 124.3,-117.94 130.15,-114.1"/>
</g>
<!-- mu&#45;&gt;y -->
<g id="edge4" class="edge">
<title>mu&#45;&gt;y</title>
<path fill="none" stroke="black" d="M102.39,-72.76C97.72,-64.37 91.9,-53.93 86.64,-44.5"/>
<polygon fill="black" stroke="black" points="89.36,-43.18 81.43,-36.15 83.24,-46.59 89.36,-43.18"/>
</g>
</g>
</svg>
