<?xml version="1.0" encoding="UTF-8" standalone="no"?>
<!DOCTYPE svg PUBLIC "-//W3C//DTD SVG 1.1//EN"
 "http://www.w3.org/Graphics/SVG/1.1/DTD/svg11.dtd">
<!-- Generated by graphviz version 2.43.0 (0)
 -->
<!-- Title: %3 Pages: 1 -->
<svg width="297pt" height="116pt"
 viewBox="0.00 0.00 297.44 116.00" xmlns="http://www.w3.org/2000/svg" xmlns:xlink="http://www.w3.org/1999/xlink">
<g id="graph0" class="graph" transform="scale(1 1) rotate(0) translate(4 112)">
<title>%3</title>
<polygon fill="white" stroke="transparent" points="-4,4 -4,-112 293.44,-112 293.44,4 -4,4"/>
<!-- sigma -->
<g id="node1" class="node">
<title>sigma</title>
<ellipse fill="white" stroke="black" cx="38.35" cy="-90" rx="38.19" ry="18"/>
<text text-anchor="middle" x="38.35" y="-86.3" font-family="Times,serif" font-size="14.00">sigma</text>
</g>
<!-- y -->
<g id="node4" class="node">
<title>y</title>
<ellipse fill="gray" stroke="black" cx="148.35" cy="-18" rx="27" ry="18"/>
<text text-anchor="middle" x="148.35" y="-14.3" font-family="Times,serif" font-size="14.00">y</text>
</g>
<!-- sigma&#45;&gt;y -->
<g id="edge1" class="edge">
<title>sigma&#45;&gt;y</title>
<path fill="none" stroke="black" d="M60.34,-75C77.69,-63.96 101.99,-48.5 120.67,-36.62"/>
<polygon fill="black" stroke="black" points="122.77,-39.43 129.32,-31.11 119.01,-33.52 122.77,-39.43"/>
</g>
<!-- intercept -->
<g id="node2" class="node">
<title>intercept</title>
<ellipse fill="white" stroke="black" cx="148.35" cy="-90" rx="53.09" ry="18"/>
<text text-anchor="middle" x="148.35" y="-86.3" font-family="Times,serif" font-size="14.00">intercept</text>
</g>
<!-- intercept&#45;&gt;y -->
<g id="edge2" class="edge">
<title>intercept&#45;&gt;y</title>
<path fill="none" stroke="black" d="M148.35,-71.7C148.35,-63.98 148.35,-54.71 148.35,-46.11"/>
<polygon fill="black" stroke="black" points="151.85,-46.1 148.35,-36.1 144.85,-46.1 151.85,-46.1"/>
</g>
<!-- slope -->
<g id="node3" class="node">
<title>slope</title>
<ellipse fill="white" stroke="black" cx="254.35" cy="-90" rx="35.19" ry="18"/>
<text text-anchor="middle" x="254.35" y="-86.3" font-family="Times,serif" font-size="14.00">slope</text>
</g>
<!-- slope&#45;&gt;y -->
<g id="edge3" class="edge">
<title>slope&#45;&gt;y</title>
<path fill="none" stroke="black" d="M233.66,-75.34C216.98,-64.33 193.41,-48.76 175.27,-36.78"/>
<polygon fill="black" stroke="black" points="177.13,-33.81 166.86,-31.22 173.27,-39.66 177.13,-33.81"/>
</g>
</g>
</svg>
